<?xml version="1.0" encoding="UTF-8" standalone="no"?>
<svg
   xmlns:dc="http://purl.org/dc/elements/1.1/"
   xmlns:cc="http://creativecommons.org/ns#"
   xmlns:rdf="http://www.w3.org/1999/02/22-rdf-syntax-ns#"
   xmlns:svg="http://www.w3.org/2000/svg"
   xmlns="http://www.w3.org/2000/svg"
   xmlns:sodipodi="http://sodipodi.sourceforge.net/DTD/sodipodi-0.dtd"
   xmlns:inkscape="http://www.inkscape.org/namespaces/inkscape"
   height="128px"
   id="Layer_1"
   style="enable-background:new 0 0 128 128;"
   version="1.1"
   viewBox="0 0 128 128"
   width="128px"
   xml:space="preserve"
   sodipodi:docname="chevronDown.svg"
   inkscape:version="0.92.4 (33fec40, 2019-01-16)"><metadata
     id="metadata13"><rdf:RDF><cc:Work
         rdf:about=""><dc:format>image/svg+xml</dc:format><dc:type
           rdf:resource="http://purl.org/dc/dcmitype/StillImage" /></cc:Work></rdf:RDF></metadata><defs
     id="defs11" /><sodipodi:namedview
     pagecolor="#ffffff"
     bordercolor="#666666"
     borderopacity="1"
     objecttolerance="10"
     gridtolerance="10"
     guidetolerance="10"
     inkscape:pageopacity="0"
     inkscape:pageshadow="2"
     inkscape:window-width="1299"
     inkscape:window-height="713"
     id="namedview9"
     showgrid="false"
     inkscape:zoom="1.84375"
     inkscape:cx="64"
     inkscape:cy="64"
     inkscape:window-x="67"
     inkscape:window-y="27"
     inkscape:window-maximized="1"
     inkscape:current-layer="Layer_1" /><g
     id="g6"><line
       style="fill:none;stroke:#2F3435;stroke-width:12;stroke-linecap:square;stroke-miterlimit:10;"
       x1="111"
       x2="64"
       y1="40.5"
       y2="87.499"
       id="line2" /><line
       style="fill:none;stroke:#2F3435;stroke-width:12;stroke-linecap:square;stroke-miterlimit:10;"
       x1="64"
       x2="17"
       y1="87.499"
       y2="40.5"
       id="line4" /></g><path
     style="fill:#666666;fill-opacity:1;stroke:#666666;stroke-width:0.54237288"
     d="M 36.52101,68.141368 8.9917524,40.60814 13.071005,36.556112 17.150258,32.504084 40.603796,55.952973 64.057334,79.401863 87.511615,55.947578 110.9659,32.493293 l 4.06841,4.068402 4.06839,4.068402 -27.526212,27.522249 -27.526221,27.522252 z"
     id="path3766"
     inkscape:connector-curvature="0" /><path
     style="fill:#808080;fill-opacity:1;stroke:#808080;stroke-width:0.54237288"
     d="M 36.190332,68.36072 C 21.163489,53.327451 8.9600986,40.782151 9.0716874,40.482275 9.1832763,40.182401 11.122632,38.216513 13.381367,36.113635 l 4.106791,-3.823413 23.280701,23.285424 23.280703,23.285425 23.458945,-23.454298 23.458953,-23.454299 4.17172,4.171721 4.17172,4.171721 -27.340709,27.553737 C 76.932805,83.004208 64.378023,95.468762 64.070677,95.548664 63.76333,95.628567 51.217175,83.393991 36.190332,68.36072 Z"
     id="path3770"
     inkscape:connector-curvature="0" /><path
     style="fill:#000000;fill-opacity:1;stroke:#000000;stroke-width:0.54237288"
     d="M 36.2032,68.360614 8.36598,40.534818 l 4.499015,-4.179672 4.499014,-4.179673 23.076265,23.071585 c 12.691947,12.689373 23.318229,23.071586 23.613963,23.071586 0.295735,0 10.972252,-10.432441 23.725603,-23.183204 l 23.18791,-23.183204 4.34371,4.343709 4.3437,4.343708 -27.807366,27.773379 -27.807376,27.773376 z"
     id="path11"
     inkscape:connector-curvature="0" /></svg>